<?xml version="1.0" encoding="UTF-8"?>
<svg xmlns="http://www.w3.org/2000/svg" xmlns:xlink="http://www.w3.org/1999/xlink" viewBox="0 0 48 48" width="512" height="512">
  <path d="m47 11v31c0 1.66-1.34 3-3 3h-40c-1.66 0-3-1.34-3-3v-31z" fill="#f1f2f2"/>
  <path d="m47 6v5h-46v-5c0-1.66 1.34-3 3-3h40c1.66 0 3 1.34 3 3z" fill="#a4b0c0"/>
  <g fill="#474c54">
    <path d="m44 2h-40c-2.206 0-4 1.794-4 4v36c0 2.206 1.794 4 4 4h40c2.206 0 4-1.794 4-4v-36c0-2.206-1.794-4-4-4zm2 40c0 1.103-.897 2-2 2h-40c-1.103 0-2-.897-2-2v-36c0-1.103.897-2 2-2h40c1.103 0 2 .897 2 2z"/>
    <path d="m6 8h1c.553 0 1-.448 1-1s-.447-1-1-1h-1c-.553 0-1 .448-1 1s.447 1 1 1z"/>
    <path d="m11 8h1c.553 0 1-.448 1-1s-.447-1-1-1h-1c-.553 0-1 .448-1 1s.447 1 1 1z"/>
    <path d="m41 8h1c.553 0 1-.448 1-1s-.447-1-1-1h-1c-.553 0-1 .448-1 1s.447 1 1 1z"/>
    <path d="m43 10h-38c-.553 0-1 .448-1 1s.447 1 1 1h38c.553 0 1-.448 1-1s-.447-1-1-1z"/>
    <path d="m7.707 16.293c-.391-.391-1.023-.391-1.414 0s-.391 1.023 0 1.414l2.293 2.293-2.293 2.293c-.391.391-.391 1.023 0 1.414.195.195.451.293.707.293s.512-.098.707-.293l3-3c.391-.391.391-1.023 0-1.414z"/>
    <path d="m17 22h-4c-.553 0-1 .448-1 1s.447 1 1 1h4c.553 0 1-.448 1-1s-.447-1-1-1z"/>
  </g>
</svg>
