<?xml version="1.0" encoding="UTF-8"?>
<svg xmlns="http://www.w3.org/2000/svg" height="512" viewBox="0 0 512 512.00002" width="512">
  <path d="m503.464844 42.667969v324.265625c0 18.851562-15.28125 34.132812-34.132813 34.132812h-426.664062c-18.851563 0-34.132813-15.28125-34.132813-34.132812v-324.265625c0-18.851563 15.28125-34.132813 34.132813-34.132813h156.839843c2.972657-.023437 5.742188 1.503906 7.3125 4.03125 1.566407 2.527344 1.707032 5.683594.367188 8.339844l-48.980469 97.878906c-1.136719 2.269532-1.207031 4.933594-.183593 7.257813 1.023437 2.328125 3.03125 4.078125 5.476562 4.773437l102.058594 29.183594c1.589844.421875 3.015625 1.316406 4.09375 2.558594 1.761718 1.976562 2.488281 4.664062 1.964844 7.253906l-17.152344 91.648438c-.707032 3.910156 1.375 7.789062 5.023437 9.359374 3.648438 1.570313 7.898438.414063 10.25-2.789062l81.324219-111.871094 25.257812-34.730468c1.675782-2.324219 2.070313-5.332032 1.058594-8.007813-1.011718-2.679687-3.300781-4.671875-6.09375-5.304687l-51.625-11.519532c-2.78125-.625-5.066406-2.589844-6.09375-5.246094s-.664062-5.648437.972656-7.980468l49.835938-71.167969c1.589844-2.292969 4.203125-3.664063 6.996094-3.667969h97.960937c18.851563 0 34.132813 15.28125 34.132813 34.132813zm0 0" fill="#00939f"/>
  <path d="m265.558594 160c1.589844.421875 3.015625 1.316406 4.09375 2.558594-94.714844 12.746094-184.601563 49.492187-261.117188 106.753906v-226.644531c0-18.851563 15.28125-34.132813 34.132813-34.132813h156.839843c2.972657-.023437 5.742188 1.503906 7.3125 4.03125 1.566407 2.527344 1.707032 5.683594.367188 8.339844l-48.980469 97.878906c-1.136719 2.269532-1.207031 4.933594-.183593 7.257813 1.023437 2.328125 3.03125 4.078125 5.476562 4.773437zm0 0" fill="#00c6db"/>
  <path d="m503.464844 42.667969v127.316406c-8.617188-1.621094-17.148438-3.15625-25.597656-4.523437-41.917969-6.785157-84.347657-9.898438-126.804688-9.300782l25.257812-34.730468c1.675782-2.324219 2.070313-5.332032 1.058594-8.007813-1.011718-2.679687-3.300781-4.671875-6.09375-5.304687l-51.625-11.519532c-2.78125-.625-5.066406-2.589844-6.09375-5.246094s-.664062-5.648437.972656-7.980468l49.835938-71.167969c1.589844-2.292969 4.203125-3.664063 6.996094-3.667969h97.960937c18.851563 0 34.132813 15.28125 34.132813 34.132813zm0 0" fill="#00939f"/>
  <path d="m477.867188 48.214844v117.246094c-41.917969-6.785157-84.347657-9.898438-126.804688-9.300782l25.257812-34.730468c1.675782-2.324219 2.070313-5.332032 1.058594-8.007813-1.011718-2.679687-3.300781-4.671875-6.09375-5.304687l-51.625-11.519532c-2.78125-.625-5.066406-2.589844-6.09375-5.246094s-.664062-5.648437.972656-7.980468l49.835938-71.167969c1.589844-2.292969 4.203125-3.664063 6.996094-3.667969h72.363281c18.859375 0 34.132813 17.746094 34.132813 39.679688zm0 0" fill="#00c6db"/>
  <path d="m503.464844 332.800781v34.132813c0 18.851562-15.28125 34.132812-34.132813 34.132812h-426.664062c-18.851563 0-34.132813-15.28125-34.132813-34.132812v-34.132813zm0 0" fill="#354aa3"/>
  <path d="m477.867188 332.800781v34.132813c0 18.851562-15.28125 34.132812-34.132813 34.132812h-401.066406c-18.851563 0-34.132813-15.28125-34.132813-34.132812v-34.132813zm0 0" fill="#5068c1"/>
  <path d="m366.933594 486.398438c-.070313 9.398437-7.671875 17-17.066406 17.066406h-187.734376c-9.414062-.027344-17.039062-7.652344-17.066406-17.066406.070313-9.394532 7.671875-16.996094 17.066406-17.066407h187.734376c9.414062.03125 17.039062 7.652344 17.066406 17.066407zm0 0" fill="#354aa3"/>
  <path d="m341.332031 486.398438c-.070312 9.398437-7.667969 17-17.066406 17.066406h-162.132813c-9.414062-.027344-17.039062-7.652344-17.066406-17.066406.070313-9.394532 7.671875-16.996094 17.066406-17.066407h162.132813c9.414063.03125 17.039063 7.652344 17.066406 17.066407zm0 0" fill="#5068c1"/>
  <path d="m256 401.066406h-42.667969c0 34.132813-25.597656 68.265625-51.199219 68.265625h187.734376c-25.601563 0-51.199219-34.132812-51.199219-68.265625zm0 0" fill="#354aa3"/>
  <path d="m264.535156 366.933594c0 4.710937-3.824218 8.53125-8.535156 8.53125s-8.535156-3.820313-8.535156-8.53125c0-4.714844 3.824218-8.535156 8.535156-8.535156s8.535156 3.820312 8.535156 8.535156zm0 0"/>
  <path d="m469.332031 0h-97.953125c-5.570312 0-10.792968 2.722656-13.984375 7.289062l-49.871093 71.21875c-3.269532 4.667969-3.992188 10.660157-1.929688 15.972657 2.066406 5.3125 6.648438 9.246093 12.214844 10.480469l51.632812 11.476562-106.613281 146.59375 17.191406-91.683594c1.664063-8.664062-3.582031-17.160156-12.074219-19.558594l-102.109374-29.171874 48.957031-97.871094c2.667969-5.292969 2.398437-11.59375-.714844-16.640625s-8.621094-8.1132815-14.550781-8.105469h-156.859375c-23.554688.0273438-42.6406252 19.113281-42.667969 42.667969v324.265625c.0273438 23.550781 19.113281 42.636718 42.667969 42.667968h161.464843c-3.667968 26.203126-23.292968 51.199219-42 51.199219-14.136718 0-25.597656 11.460938-25.597656 25.597657 0 14.140624 11.460938 25.601562 25.597656 25.601562h187.734376c14.136718 0 25.597656-11.460938 25.597656-25.601562 0-14.136719-11.460938-25.597657-25.597656-25.597657-18.707032 0-38.332032-24.996093-42-51.199219h161.464843c23.554688-.03125 42.640625-19.117187 42.667969-42.667968v-324.265625c-.027344-23.554688-19.113281-42.6406252-42.667969-42.667969zm-426.664062 17.066406h156.859375l-48.957032 97.921875c-2.273437 4.539063-2.402343 9.855469-.359374 14.503907 2.042968 4.648437 6.050781 8.144531 10.933593 9.542968l102.101563 29.164063-17.195313 91.683593c-1.46875 7.84375 2.691407 15.65625 10.015625 18.8125 7.328125 3.160157 15.863282.824219 20.558594-5.628906l106.625-146.59375c3.382812-4.652344 4.195312-10.699218 2.160156-16.078125-2.035156-5.382812-6.648437-9.375-12.265625-10.621093l-51.632812-11.46875 49.867187-71.238282h97.953125c14.140625 0 25.601563 11.460938 25.601563 25.601563v281.597656h-477.867188v-281.597656c0-14.140625 11.460938-25.601563 25.601563-25.601563zm307.199219 477.867188h-187.734376c-4.710937 0-8.53125-3.820313-8.53125-8.535156 0-4.710938 3.820313-8.53125 8.53125-8.53125h187.734376c4.710937 0 8.53125 3.820312 8.53125 8.53125 0 4.714843-3.820313 8.535156-8.53125 8.535156zm-35.242188-34.132813h-117.25c13.378906-13.992187 21.8125-31.972656 24.023438-51.199219h69.203124c2.210938 19.226563 10.644532 37.207032 24.023438 51.199219zm180.308594-93.867187c0 14.136718-11.460938 25.601562-25.601563 25.601562h-426.664062c-14.140625 0-25.601563-11.464844-25.601563-25.601562v-25.601563h477.867188zm0 0"/>
  <path d="m42.667969 298.667969h34.132812c4.710938 0 8.53125-3.820313 8.53125-8.535157 0-4.710937-3.820312-8.53125-8.53125-8.53125h-34.132812c-4.714844 0-8.535157 3.820313-8.535157 8.53125 0 4.714844 3.820313 8.535157 8.535157 8.535157zm0 0"/>
  <path d="m128 256c0 4.710938 3.820312 8.535156 8.535156 8.535156h34.132813c4.710937 0 8.53125-3.824218 8.53125-8.535156s-3.820313-8.535156-8.53125-8.535156h-34.132813c-4.714844 0-8.535156 3.824218-8.535156 8.535156zm0 0"/>
  <path d="m384 264.535156h85.332031c4.714844 0 8.535157-3.824218 8.535157-8.535156s-3.820313-8.535156-8.535157-8.535156h-85.332031c-4.710938 0-8.535156 3.824218-8.535156 8.535156s3.824218 8.535156 8.535156 8.535156zm0 0"/>
  <path d="m42.667969 264.535156h42.664062c4.714844 0 8.535157-3.824218 8.535157-8.535156s-3.820313-8.535156-8.535157-8.535156h-42.664062c-4.714844 0-8.535157 3.824218-8.535157 8.535156s3.820313 8.535156 8.535157 8.535156zm0 0"/>
  <path d="m42.667969 230.398438h102.398437c4.714844 0 8.535156-3.820313 8.535156-8.53125 0-4.714844-3.820312-8.535157-8.535156-8.535157h-102.398437c-4.714844 0-8.535157 3.820313-8.535157 8.535157 0 4.710937 3.820313 8.53125 8.535157 8.53125zm0 0"/>
  <path d="m42.667969 196.265625h8.53125c4.714843 0 8.535156-3.820313 8.535156-8.53125 0-4.714844-3.820313-8.535156-8.535156-8.535156h-8.53125c-4.714844 0-8.535157 3.820312-8.535157 8.535156 0 4.710937 3.820313 8.53125 8.535157 8.53125zm0 0"/>
  <path d="m409.601562 162.132812h59.730469c4.714844 0 8.535157-3.820312 8.535157-8.53125 0-4.714843-3.820313-8.535156-8.535157-8.535156h-59.730469c-4.714843 0-8.535156 3.820313-8.535156 8.535156 0 4.710938 3.820313 8.53125 8.535156 8.53125zm0 0"/>
  <path d="m136.535156 281.601562h-8.535156c-4.710938 0-8.535156 3.820313-8.535156 8.53125 0 4.714844 3.824218 8.535157 8.535156 8.535157h8.535156c4.710938 0 8.53125-3.820313 8.53125-8.535157 0-4.710937-3.820312-8.53125-8.53125-8.53125zm0 0"/>
  <path d="m469.332031 281.601562h-8.53125c-4.714843 0-8.535156 3.820313-8.535156 8.53125 0 4.714844 3.820313 8.535157 8.535156 8.535157h8.53125c4.714844 0 8.535157-3.820313 8.535157-8.535157 0-4.710937-3.820313-8.53125-8.535157-8.53125zm0 0"/>
  <path d="m204.800781 230.398438h8.53125c4.714844 0 8.535157-3.820313 8.535157-8.53125 0-4.714844-3.820313-8.535157-8.535157-8.535157h-8.53125c-4.714843 0-8.535156 3.820313-8.535156 8.535157 0 4.710937 3.820313 8.53125 8.535156 8.53125zm0 0"/>
  <path d="m469.332031 213.332031h-42.664062c-4.714844 0-8.535157 3.820313-8.535157 8.535157 0 4.710937 3.820313 8.53125 8.535157 8.53125h42.664062c4.714844 0 8.535157-3.820313 8.535157-8.53125 0-4.714844-3.820313-8.535157-8.535157-8.535157zm0 0"/>
  <path d="m42.667969 162.132812h59.730469c4.714843 0 8.535156-3.820312 8.535156-8.53125 0-4.714843-3.820313-8.535156-8.535156-8.535156h-59.730469c-4.714844 0-8.535157 3.820313-8.535157 8.535156 0 4.710938 3.820313 8.53125 8.535157 8.53125zm0 0"/>
  <path d="m85.332031 187.734375c0 4.710937 3.820313 8.53125 8.535157 8.53125h59.734374c4.710938 0 8.53125-3.820313 8.53125-8.53125 0-4.714844-3.820312-8.535156-8.53125-8.535156h-59.734374c-4.714844 0-8.535157 3.820312-8.535157 8.535156zm0 0"/>
  <path d="m42.667969 128h34.132812c4.710938 0 8.53125-3.820312 8.53125-8.535156 0-4.710938-3.820312-8.53125-8.53125-8.53125h-34.132812c-4.714844 0-8.535157 3.820312-8.535157 8.53125 0 4.714844 3.820313 8.535156 8.535157 8.535156zm0 0"/>
  <path d="m42.667969 93.867188h17.066406c4.710937 0 8.53125-3.820313 8.53125-8.535157 0-4.710937-3.820313-8.53125-8.53125-8.53125h-17.066406c-4.714844 0-8.535157 3.820313-8.535157 8.53125 0 4.714844 3.820313 8.535157 8.535157 8.535157zm0 0"/>
  <path d="m426.667969 93.867188h42.664062c4.714844 0 8.535157-3.820313 8.535157-8.535157 0-4.710937-3.820313-8.53125-8.535157-8.53125h-42.664062c-4.714844 0-8.535157 3.820313-8.535157 8.53125 0 4.714844 3.820313 8.535157 8.535157 8.535157zm0 0"/>
  <path d="m349.867188 230.398438h17.066406c4.710937 0 8.53125-3.820313 8.53125-8.53125 0-4.714844-3.820313-8.535157-8.53125-8.535157h-17.066406c-4.714844 0-8.535157 3.820313-8.535157 8.535157 0 4.710937 3.820313 8.53125 8.535157 8.53125zm0 0"/>
  <path d="m418.132812 281.601562h-17.066406c-4.710937 0-8.53125 3.820313-8.53125 8.53125 0 4.714844 3.820313 8.535157 8.53125 8.535157h17.066406c4.714844 0 8.535157-3.820313 8.535157-8.535157 0-4.710937-3.820313-8.53125-8.535157-8.53125zm0 0"/>
  <path d="m469.332031 179.199219h-17.066406c-4.710937 0-8.53125 3.820312-8.53125 8.535156 0 4.710937 3.820313 8.53125 8.53125 8.53125h17.066406c4.714844 0 8.535157-3.820313 8.535157-8.53125 0-4.714844-3.820313-8.535156-8.535157-8.535156zm0 0"/>
  <path d="m85.332031 85.332031c0 4.714844 3.820313 8.535157 8.535157 8.535157h34.132812c4.710938 0 8.535156-3.820313 8.535156-8.535157 0-4.710937-3.824218-8.53125-8.535156-8.53125h-34.132812c-4.714844 0-8.535157 3.820313-8.535157 8.53125zm0 0"/>
  <path d="m42.667969 59.734375h68.265625c4.710937 0 8.53125-3.820313 8.53125-8.535156 0-4.710938-3.820313-8.53125-8.53125-8.53125h-68.265625c-4.714844 0-8.535157 3.820312-8.535157 8.53125 0 4.714843 3.820313 8.535156 8.535157 8.535156zm0 0"/>
</svg>
