<?xml version="1.0" encoding="UTF-8"?>
<!-- Generator: Adobe Illustrator 19.0.0, SVG Export Plug-In . SVG Version: 6.00 Build 0)  -->
<svg xmlns="http://www.w3.org/2000/svg" xmlns:xlink="http://www.w3.org/1999/xlink" version="1.1" id="Capa_1" x="0px" y="0px" viewBox="0 0 512 512" style="enable-background:new 0 0 512 512;" xml:space="preserve" width="512" height="512">
<path style="fill:#A4B0C0;" d="M501.333,53.333V96H10.667V53.333c0-23.573,19.093-42.667,42.667-42.667h405.333  C458.667,10.667,501.333,10.667,501.333,53.333z"/>
<path style="fill:#FED049;" d="M501.333,96v362.667c0,23.573-19.093,42.667-42.667,42.667H53.333  c-23.573,0-42.667-19.093-42.667-42.667V96H501.333z"/>
<path style="fill:#768BA0;" d="M309.333,234.667c0,21.867-13.227,40.64-32,48.853V416h-42.667V283.52  c-18.773-8.213-32-26.987-32-48.853c0-29.44,23.893-53.333,53.333-53.333S309.333,205.227,309.333,234.667z"/>
<g>
	<path style="fill:#474C54;" d="M501.333,85.333H64c-5.888,0-10.667,4.779-10.667,10.667S58.112,106.667,64,106.667h426.667v352   c0,17.643-14.357,32-32,32H53.333c-17.643,0-32-14.357-32-32V53.333c0-17.643,14.357-32,32-32h405.28   c5.355,0.064,32.053,1.888,32.053,32c0,5.888,4.779,10.667,10.667,10.667S512,59.221,512,53.333C512,11.147,477.109,0,458.667,0   H53.333C23.925,0,0,23.925,0,53.333v405.333C0,488.075,23.925,512,53.333,512h405.333C488.075,512,512,488.075,512,458.667V96   C512,90.112,507.221,85.333,501.333,85.333z"/>
	<path style="fill:#474C54;" d="M64,42.667c-5.888,0-10.667,4.779-10.667,10.667S58.112,64,64,64h21.333   C91.221,64,96,59.221,96,53.333s-4.779-10.667-10.667-10.667H64z"/>
	<path style="fill:#474C54;" d="M128,42.667c-5.888,0-10.667,4.779-10.667,10.667S122.112,64,128,64h21.333   C155.221,64,160,59.221,160,53.333s-4.779-10.667-10.667-10.667H128z"/>
	<path style="fill:#474C54;" d="M437.333,42.667c-5.888,0-10.667,4.779-10.667,10.667S431.445,64,437.333,64h21.333   c5.888,0,10.667-4.779,10.667-10.667s-4.779-10.667-10.667-10.667H437.333z"/>
	<path style="fill:#474C54;" d="M234.667,426.667h42.667c5.888,0,10.667-4.779,10.667-10.667V290.059   c19.648-11.349,32-32.395,32-55.392c0-35.296-28.704-64-64-64s-64,28.704-64,64c0,23.008,12.352,44.043,32,55.392V416   C224,421.888,228.779,426.667,234.667,426.667z M213.333,234.667C213.333,211.136,232.469,192,256,192s42.667,19.136,42.667,42.667   c0,16.928-10.048,32.277-25.611,39.083c-3.883,1.696-6.389,5.536-6.389,9.771v121.813h-21.333V283.52   c0-4.235-2.507-8.075-6.389-9.771C223.381,266.944,213.333,251.595,213.333,234.667z"/>
	<path style="fill:#474C54;" d="M245.333,245.333h21.333c5.888,0,10.667-4.779,10.667-10.667S272.555,224,266.667,224h-21.333   c-5.888,0-10.667,4.779-10.667,10.667S239.445,245.333,245.333,245.333z"/>
	<path style="fill:#474C54;" d="M448,192c5.888,0,10.667-4.779,10.667-10.667v-32c0-5.888-4.779-10.667-10.667-10.667h-32   c-5.888,0-10.667,4.779-10.667,10.667S410.112,160,416,160h21.333v21.333C437.333,187.221,442.112,192,448,192z"/>
	<path style="fill:#474C54;" d="M64,405.333c-5.888,0-10.667,4.779-10.667,10.667v32c0,5.888,4.779,10.667,10.667,10.667h32   c5.888,0,10.667-4.779,10.667-10.667c0-5.888-4.779-10.667-10.667-10.667H74.667V416C74.667,410.112,69.888,405.333,64,405.333z"/>
</g>
<g>
</g>
<g>
</g>
<g>
</g>
<g>
</g>
<g>
</g>
<g>
</g>
<g>
</g>
<g>
</g>
<g>
</g>
<g>
</g>
<g>
</g>
<g>
</g>
<g>
</g>
<g>
</g>
<g>
</g>
</svg>
