<?xml version="1.0" encoding="UTF-8"?>
<svg xmlns="http://www.w3.org/2000/svg" height="512" viewBox="0 0 512 512.00217" width="512">
  <path d="m10.667969 96h490.667969v384c0 11.78125-9.554688 21.332031-21.335938 21.332031h-448c-11.78125 0-21.332031-9.550781-21.332031-21.332031zm0 0" fill="#fed049"/>
  <path d="m10.667969 96v-64c.035156-11.765625 9.566406-21.296875 21.332031-21.332031h448c11.769531.035156 21.300781 9.566406 21.335938 21.332031v64zm0 0" fill="#a5b1c2"/>
  <path d="m461.121094 453.761719c5.269531 5.191406 8.238281 12.28125 8.238281 19.679687 0 7.398438-2.96875 14.484375-8.238281 19.679688-1.992188 1.976562-4.253906 3.667968-6.71875 5.011718-10.792969 5.726563-24.066406 3.6875-32.640625-5.011718l-25.386719-25.386719 39.359375-39.359375zm0 0" fill="#778ca3"/>
  <path d="m382.402344 414.398438 19.625-19.730469 33.707031 33.707031-39.359375 39.359375-33.707031-33.707031zm0 0" fill="#778ca3"/>
  <path d="m298.667969 298.667969v32c0 23.5625-19.101563 42.664062-42.667969 42.664062-23.5625 0-42.664062-19.101562-42.664062-42.664062v-32zm0 0" fill="#fa5c66"/>
  <path d="m298.667969 288v10.667969h-85.332031v-10.667969c0-23.5625 19.101562-42.667969 42.664062-42.667969 23.566406 0 42.667969 19.105469 42.667969 42.667969zm0 0" fill="#768ba0"/>
  <path d="m354.027344 386.027344c-46.789063 46.765625-120.101563 53.964844-175.097656 17.195312-54.996094-36.769531-76.359376-107.265625-51.023438-168.378906s90.3125-95.816406 155.195312-82.886719c64.878907 12.925781 111.589844 69.886719 111.566407 136.042969.03125 36.78125-14.59375 72.058594-40.640625 98.027344zm-55.359375-55.359375v-42.667969c0-23.5625-19.101563-42.667969-42.667969-42.667969-23.5625 0-42.664062 19.105469-42.664062 42.667969v42.667969c0 23.5625 19.101562 42.664062 42.664062 42.664062 23.566406 0 42.667969-19.101562 42.667969-42.664062zm0 0" fill="#f1f2f2"/>
  <g fill="#474c54">
    <path d="m341.335938 256h-21.335938c.285156 2.90625-.746094 5.789062-2.8125 7.855469-2.0625 2.066406-4.945312 3.097656-7.851562 2.8125h-4.566407c-5.507812-12.96875-16.039062-23.148438-29.183593-28.214844 7.800781-6 12.382812-15.277344 12.414062-25.121094v-10.664062h-21.332031v10.664062c0 5.890625-4.777344 10.667969-10.667969 10.667969s-10.664062-4.777344-10.664062-10.667969v-10.664062h-21.335938v10.664062c.039062 9.863281 4.636719 19.15625 12.460938 25.164063-13.082032 5.175781-23.601563 15.296875-29.269532 28.171875h-4.394531c-2.925781.308593-5.835937-.710938-7.925781-2.777344-2.09375-2.066406-3.144532-4.960937-2.871094-7.890625h-21.332031c-.25 8.5625 3.039062 16.847656 9.097656 22.902344 6.054687 6.058594 14.339844 9.347656 22.902344 9.097656v32c-8.5625-.25-16.847657 3.039062-22.902344 9.097656-6.058594 6.054688-9.347656 14.339844-9.097656 22.902344h21.332031c-.5625-4.59375 2.335938-8.902344 6.804688-10.113281l6.988281 6.988281.214843-.214844c7.496094 21.179688 27.527344 35.339844 49.992188 35.339844 22.46875 0 42.5-14.160156 49.996094-35.339844l.214844.214844 6.972656-6.976562c4.472656 1.199218 7.378906 5.507812 6.816406 10.101562h21.335938c.25-8.5625-3.042969-16.847656-9.097657-22.902344-6.058593-6.058594-14.34375-9.347656-22.902343-9.097656v-32c8.558593.25 16.84375-3.039062 22.902343-9.097656 6.054688-6.054688 9.347657-14.339844 9.097657-22.902344zm-85.335938 0c8.492188-.015625 16.640625 3.347656 22.648438 9.355469 6.003906 6.003906 9.371093 14.152343 9.351562 22.644531h-64c0-17.671875 14.328125-32 32-32zm0 106.667969c-17.671875 0-32-14.328125-32-32v-21.335938h64v21.335938c0 17.671875-14.324219 32-32 32zm0 0"/>
    <path d="m480 0h-448c-17.671875 0-32 14.328125-32 32v448c0 17.671875 14.328125 32 32 32h362.667969v-21.332031h-362.667969c-5.890625 0-10.664062-4.777344-10.664062-10.667969v-448c0-5.890625 4.773437-10.667969 10.664062-10.667969h448c5.890625 0 10.667969 4.777344 10.667969 10.667969v53.332031h-448v21.335938h458.667969c5.890624 0 10.664062-4.777344 10.664062-10.667969v-64c0-17.671875-14.324219-32-32-32zm0 0"/>
    <path d="m42.667969 42.667969h21.332031v21.332031h-21.332031zm0 0"/>
    <path d="m85.335938 42.667969h21.332031v21.332031h-21.332031zm0 0"/>
    <path d="m128 42.667969h21.335938v21.332031h-21.335938zm0 0"/>
    <path d="m468.664062 446.21875-59.09375-59.09375c-2-2-4.714843-3.125-7.542968-3.125-2.839844.019531-5.554688 1.171875-7.539063 3.199219l-12.121093 12.117187-13.621094-13.652344c52.808594-60.929687 47.898437-152.730468-11.109375-207.671874-59.007813-54.945313-150.925781-53.308594-207.9375 3.703124-57.015625 57.015626-58.652344 148.929688-3.707031 207.9375 54.945312 59.007813 146.746093 63.921876 207.671874 11.113282l13.601563 13.601562-12.066406 12.117188c-2.003907 2-3.132813 4.71875-3.132813 7.550781 0 2.835937 1.128906 5.550781 3.132813 7.550781l59.050781 59.050782c7.144531 7.269531 16.902344 11.371093 27.09375 11.382812 6.324219-.019531 12.542969-1.574219 18.132812-4.523438 3.34375-1.828124 6.410157-4.121093 9.109376-6.804687 7.28125-7.195313 11.378906-17.003906 11.378906-27.238281s-4.097656-20.042969-11.378906-27.234375zm-340.664062-158.21875c0-70.691406 57.308594-128 128-128 70.695312 0 128 57.308594 128 128s-57.304688 128-128 128c-70.660156-.078125-127.921875-57.339844-128-128zm274.050781 121.769531 18.558594 18.5625-24.234375 24.320313-18.601562-18.605469zm51.527344 75.808594c-1.230469 1.222656-2.625 2.269531-4.136719 3.113281-6.664062 3.523438-14.851562 2.257813-20.140625-3.113281l-17.886719-17.886719 24.308594-24.246094 17.890625 17.886719c3.257813 3.191407 5.09375 7.5625 5.09375 12.125 0 4.558594-1.835937 8.929688-5.09375 12.121094zm0 0"/>
    <path d="m490.667969 480c-.066407 5.15625-3.753907 9.554688-8.820313 10.515625-.609375.121094-1.226562.171875-1.847656.152344v21.332031c2.152344.027344 4.300781-.191406 6.402344-.652344 14.851562-3.109375 25.519531-16.171875 25.597656-31.347656v-352h-21.332031zm0 0"/>
    <path d="m42.667969 405.332031h64v21.335938h-64zm0 0"/>
    <path d="m42.667969 448h64v21.332031h-64zm0 0"/>
    <path d="m405.335938 128h64v21.332031h-64zm0 0"/>
    <path d="m405.335938 170.667969h64v21.332031h-64zm0 0"/>
  </g>
</svg>
