<?xml version="1.0" encoding="UTF-8"?>
<!-- Generator: Adobe Illustrator 19.0.0, SVG Export Plug-In . SVG Version: 6.00 Build 0)  -->
<svg xmlns="http://www.w3.org/2000/svg" xmlns:xlink="http://www.w3.org/1999/xlink" version="1.1" id="Capa_1" x="0px" y="0px" viewBox="0 0 512 512" style="enable-background:new 0 0 512 512;" xml:space="preserve" width="512" height="512">
<path style="fill:#D9EEF7;" d="M501.333,96v362.667c0,23.564-19.103,42.667-42.667,42.667H53.333  c-23.564,0-42.667-19.103-42.667-42.667V96H501.333z"/>
<path style="fill:#AAC4DA;" d="M501.333,53.333V96H10.667V53.333c0-23.564,19.103-42.667,42.667-42.667h405.333  C482.231,10.667,501.333,29.769,501.333,53.333z"/>
<g>
	<path style="fill:#4C5B66;" d="M458.667,0H53.333C23.893,0.035,0.035,23.893,0,53.333v405.333   C0.035,488.107,23.893,511.965,53.333,512h405.333c29.441-0.035,53.298-23.893,53.333-53.333V53.333   C511.965,23.893,488.107,0.035,458.667,0z M490.667,458.667c0,17.673-14.327,32-32,32H53.333c-17.673,0-32-14.327-32-32V53.333   c0-17.673,14.327-32,32-32h405.333c17.673,0,32,14.327,32,32V458.667z"/>
	<path style="fill:#4C5B66;" d="M42.667,85.333h426.667v21.333H42.667V85.333z"/>
	<path style="fill:#4C5B66;" d="M53.333,42.667h21.333V64H53.333V42.667z"/>
	<path style="fill:#4C5B66;" d="M96,42.667h21.333V64H96V42.667z"/>
	<path style="fill:#4C5B66;" d="M437.333,42.667h21.333V64h-21.333V42.667z"/>
	<path style="fill:#4C5B66;" d="M138.667,213.333v53.333h-21.333V288h32c5.891,0,10.667-4.776,10.667-10.667v-64   c0-5.891,4.776-10.667,10.667-10.667H192v-21.333h-21.333C152.994,181.333,138.667,195.66,138.667,213.333z"/>
	<path style="fill:#4C5B66;" d="M160,373.333v-64h-21.333v64c0,17.673,14.327,32,32,32H192V384h-21.333   C164.776,384,160,379.224,160,373.333z"/>
	<path style="fill:#4C5B66;" d="M352,309.333v64c0,5.891-4.776,10.667-10.667,10.667H320v21.333h21.333c17.673,0,32-14.327,32-32   V320h21.333v-21.333h-32C356.776,298.667,352,303.442,352,309.333z"/>
	<path style="fill:#4C5B66;" d="M373.333,277.333v-64c0-17.673-14.327-32-32-32H320v21.333h21.333   c5.891,0,10.667,4.776,10.667,10.667v64H373.333z"/>
	<path style="fill:#4C5B66;" d="M245.333,277.333h21.333v21.333h-21.333V277.333z"/>
	<path style="fill:#4C5B66;" d="M288,277.333h21.333v21.333H288V277.333z"/>
	<path style="fill:#4C5B66;" d="M202.667,277.333H224v21.333h-21.333V277.333z"/>
	<path style="fill:#4C5B66;" d="M42.667,138.667v42.667H64v-32h32V128H53.333C47.442,128,42.667,132.776,42.667,138.667z"/>
	<path style="fill:#4C5B66;" d="M448,448h-32v21.333h42.667c5.891,0,10.667-4.776,10.667-10.667V416H448V448z"/>
</g>
<g>
</g>
<g>
</g>
<g>
</g>
<g>
</g>
<g>
</g>
<g>
</g>
<g>
</g>
<g>
</g>
<g>
</g>
<g>
</g>
<g>
</g>
<g>
</g>
<g>
</g>
<g>
</g>
<g>
</g>
</svg>
