<?xml version="1.0" encoding="UTF-8"?>
<svg xmlns="http://www.w3.org/2000/svg" height="512" viewBox="0 0 512 512" width="512">
  <path d="m480 10.667969h-234.667969c-11.78125 0-21.332031 9.550781-21.332031 21.332031v85.332031l-53.332031 53.335938h53.332031v96c0 11.78125 9.550781 21.332031 21.332031 21.332031h234.667969c11.78125 0 21.332031-9.550781 21.332031-21.332031v-234.667969c0-11.78125-9.550781-21.332031-21.332031-21.332031zm0 0" fill="#fed049"/>
  <path d="m288 448c0 11.78125-9.550781 21.332031-21.332031 21.332031-11.785157 0-21.335938-9.550781-21.335938-21.332031s9.550781-21.332031 21.335938-21.332031c11.78125 0 21.332031 9.550781 21.332031 21.332031zm0 0" fill="#f1f2f2"/>
  <path d="m288 298.667969c0 11.78125-9.550781 21.332031-21.332031 21.332031-11.785157 0-21.335938-9.550781-21.335938-21.332031 0-11.785157 9.550781-21.335938 21.335938-21.335938 11.78125 0 21.332031 9.550781 21.332031 21.335938zm0 0" fill="#f1f2f2"/>
  <path d="m42.667969 352h256v42.667969h-256zm0 0" fill="#778ca3"/>
  <path d="m266.667969 469.332031c11.78125 0 21.332031-9.550781 21.332031-21.332031s-9.550781-21.332031-21.332031-21.332031c-11.785157 0-21.335938 9.550781-21.335938 21.332031.035157 11.765625 9.566407 21.296875 21.335938 21.332031zm-256 10.667969v-64c.035156-11.765625 9.566406-21.296875 21.332031-21.332031h277.332031c11.769531.035156 21.300781 9.566406 21.335938 21.332031v64c-.035157 11.765625-9.566407 21.296875-21.335938 21.332031h-277.332031c-11.765625-.035156-21.296875-9.566406-21.332031-21.332031zm0 0" fill="#d1d8e0"/>
  <path d="m266.667969 320c11.78125 0 21.332031-9.550781 21.332031-21.332031 0-11.785157-9.550781-21.335938-21.332031-21.335938-11.785157 0-21.335938 9.550781-21.335938 21.335938.035157 11.765625 9.566407 21.296875 21.335938 21.332031zm32 32h-266.667969c-11.765625-.035156-21.296875-9.566406-21.332031-21.332031v-64c.035156-11.769531 9.566406-21.300781 21.332031-21.335938h277.332031c11.769531.035157 21.300781 9.566407 21.335938 21.335938v64c-.035157 11.765625-9.566407 21.296875-21.335938 21.332031zm0 0" fill="#d1d8e0"/>
  <g fill="#474c54">
    <path d="m309.332031 234.667969h-277.332031c-17.671875 0-32 14.324219-32 32v64c0 17.671875 14.328125 32 32 32v21.332031c-17.671875 0-32 14.328125-32 32v64c0 17.671875 14.328125 32 32 32h277.332031c17.675781 0 32-14.328125 32-32v-64c0-17.671875-14.324219-32-32-32v-21.332031c17.675781 0 32-14.328125 32-32v-64c0-17.675781-14.324219-32-32-32zm10.667969 181.332031v64c0 5.890625-4.777344 10.667969-10.667969 10.667969h-277.332031c-5.890625 0-10.667969-4.777344-10.667969-10.667969v-64c0-5.890625 4.777344-10.667969 10.667969-10.667969h277.332031c5.890625 0 10.667969 4.777344 10.667969 10.667969zm-32-32h-234.667969v-21.332031h234.667969zm32-53.332031c0 5.890625-4.777344 10.664062-10.667969 10.664062h-277.332031c-5.890625 0-10.667969-4.773437-10.667969-10.664062v-64c0-5.890625 4.777344-10.667969 10.667969-10.667969h277.332031c5.890625 0 10.667969 4.777344 10.667969 10.667969zm0 0"/>
    <path d="m266.667969 416c-17.675781 0-32 14.328125-32 32s14.324219 32 32 32c17.671875 0 32-14.328125 32-32s-14.328125-32-32-32zm0 42.667969c-5.890625 0-10.667969-4.777344-10.667969-10.667969s4.777344-10.667969 10.667969-10.667969 10.664062 4.777344 10.664062 10.667969-4.773437 10.667969-10.664062 10.667969zm0 0"/>
    <path d="m266.667969 266.667969c-17.675781 0-32 14.324219-32 32 0 17.671875 14.324219 32 32 32 17.671875 0 32-14.328125 32-32 0-17.675781-14.328125-32-32-32zm0 42.664062c-5.890625 0-10.667969-4.773437-10.667969-10.664062s4.777344-10.667969 10.667969-10.667969 10.664062 4.777344 10.664062 10.667969-4.773437 10.664062-10.664062 10.664062zm0 0"/>
    <path d="m192 437.332031h21.332031v21.335938h-21.332031zm0 0"/>
    <path d="m192 288h21.332031v21.332031h-21.332031zm0 0"/>
    <path d="m42.667969 288h128v21.332031h-128zm0 0"/>
    <path d="m42.667969 437.332031h128v21.335938h-128zm0 0"/>
    <path d="m480 0h-234.667969c-17.671875 0-32 14.328125-32 32v80.917969l-50.207031 50.207031c-3.050781 3.050781-3.960938 7.636719-2.3125 11.625 1.652344 3.984375 5.539062 6.582031 9.855469 6.582031h42.664062v32h21.335938v-42.664062c0-5.890625-4.777344-10.667969-10.667969-10.667969h-27.585938l35.128907-35.125c2-2 3.125-4.714844 3.125-7.542969v-85.332031c0-5.890625 4.773437-10.667969 10.664062-10.667969h234.667969c5.890625 0 10.667969 4.777344 10.667969 10.667969v234.667969c0 5.890625-4.777344 10.664062-10.667969 10.664062h-117.332031v21.335938h117.332031c17.671875 0 32-14.328125 32-32v-234.667969c0-17.671875-14.328125-32-32-32zm0 0"/>
    <path d="m373.332031 234.667969v-22.292969c26.800781-4.582031 47.792969-25.574219 52.375-52.375h22.292969v-21.332031h-22.292969c-4.582031-26.800781-25.574219-47.792969-52.375-52.375v-22.292969h-21.332031v22.292969c-26.800781 4.582031-47.792969 25.574219-52.375 52.375h-22.292969v21.332031h22.292969c4.582031 26.800781 25.574219 47.792969 52.375 52.375v22.292969zm-51.816406-74.667969h19.816406v-21.332031h-19.816406c3.902344-14.925781 15.558594-26.582031 30.484375-30.488281v19.820312h21.332031v-19.820312c14.925781 3.90625 26.582031 15.5625 30.488281 30.488281h-19.820312v21.332031h19.820312c-3.90625 14.925781-15.5625 26.582031-30.488281 30.484375v-19.816406h-21.332031v19.816406c-14.925781-3.902344-26.582031-15.558594-30.484375-30.484375zm0 0"/>
  </g>
</svg>
