<?xml version="1.0" encoding="UTF-8"?>
<svg xmlns="http://www.w3.org/2000/svg" height="512" viewBox="0 0 512 512.13256" width="512">
  <path d="m362.734375 256.132812c29.453125 0 53.332031 23.878907 53.332031 53.332032 0 29.457031-23.878906 53.335937-53.332031 53.335937h-213.335937c-29.453126 0-53.332032-23.878906-53.332032-53.335937 0-29.453125 23.878906-53.332032 53.332032-53.332032h11.308593c-.429687-3.539062-.644531-7.101562-.640625-10.667968 0-53.019532 42.980469-96 96-96 53.019532 0 96 42.980468 96 96 .003906 3.566406-.210937 7.128906-.640625 10.667968zm0 0" fill="#49aaee"/>
  <g fill="#fed049">
    <path d="m469.398438 480.132812c0 11.78125-9.550782 21.332032-21.332032 21.332032s-21.332031-9.550782-21.332031-21.332032 9.550781-21.332031 21.332031-21.332031 21.332032 9.550781 21.332032 21.332031zm0 0"/>
    <path d="m501.398438 256.132812c0 11.78125-9.550782 21.332032-21.332032 21.332032s-21.332031-9.550782-21.332031-21.332032 9.550781-21.332031 21.332031-21.332031 21.332032 9.550781 21.332032 21.332031zm0 0"/>
    <path d="m469.398438 32.132812c0 11.78125-9.550782 21.332032-21.332032 21.332032s-21.332031-9.550782-21.332031-21.332032 9.550781-21.332031 21.332031-21.332031 21.332032 9.550781 21.332032 21.332031zm0 0"/>
    <path d="m53.398438 256.132812c0 11.78125-9.550782 21.332032-21.332032 21.332032s-21.332031-9.550782-21.332031-21.332032 9.550781-21.332031 21.332031-21.332031 21.332032 9.550781 21.332032 21.332031zm0 0"/>
    <path d="m85.398438 480.132812c0 11.78125-9.550782 21.332032-21.332032 21.332032s-21.332031-9.550782-21.332031-21.332032 9.550781-21.332031 21.332031-21.332031 21.332032 9.550781 21.332032 21.332031zm0 0"/>
    <path d="m85.398438 32.132812c0 11.78125-9.550782 21.332032-21.332032 21.332032s-21.332031-9.550782-21.332031-21.332032 9.550781-21.332031 21.332031-21.332031 21.332032 9.550781 21.332032 21.332031zm0 0"/>
  </g>
  <path d="m341.398438 245.464844c-.015626 3.175781-.203126 6.351562-.5625 9.503906-.332032 3.015625.636718 6.027344 2.660156 8.28125 2.019531 2.257812 4.910156 3.550781 7.941406 3.550781h11.296875c23.5625 0 42.664063 19.101563 42.664063 42.664063 0 23.566406-19.101563 42.667968-42.664063 42.667968h-42.667969v21.332032h42.667969c35.34375 0 64-28.652344 64-64 0-35.34375-28.65625-64-64-64-.011719-27.195313-10.453125-53.351563-29.175781-73.078125l54.921875-54.921875h38.253906c17.671875 0 32-14.324219 32-32v-23.296875c14.691406-5.191407 23.507813-20.21875 20.871094-35.578125-2.636719-15.363282-15.953125-26.589844-31.539063-26.589844-15.585937 0-28.902344 11.226562-31.539062 26.589844-2.636719 15.359375 6.179687 30.386718 20.871094 35.578125v23.296875c0 5.890625-4.773438 10.667968-10.664063 10.667968h-42.667969c-2.828125 0-5.542968 1.125-7.542968 3.125l-59.101563 59.105469c-36.738281-26.066406-85.933594-26.066406-122.667969 0l-59.144531-59.105469c-2-2-4.714844-3.125-7.542969-3.125h-42.667968c-5.890626 0-10.664063-4.777343-10.664063-10.667968v-23.296875c14.691406-5.191407 23.507813-20.21875 20.871094-35.578125-2.636719-15.363282-15.953125-26.589844-31.539063-26.589844-15.585937 0-28.902344 11.226562-31.539062 26.589844-2.636719 15.359375 6.179687 30.386718 20.871094 35.578125v23.296875c0 17.675781 14.328124 32 32 32h38.25l54.925781 54.921875c-18.722657 19.726562-29.164063 45.882812-29.175781 73.078125-35.34375 0-64 28.65625-64 64 0 35.347656 28.65625 64 64 64h42.667968v-21.332032h-42.667968c-23.5625 0-42.664063-19.101562-42.664063-42.667968 0-23.5625 19.101563-42.664063 42.664063-42.664063h11.296874c3.03125 0 5.917969-1.292969 7.941407-3.550781 2.023437-2.253906 2.992187-5.265625 2.660156-8.28125-.359375-3.152344-.546875-6.328125-.5625-9.503906 0-47.128906 38.203125-85.332032 85.332031-85.332032s85.332032 38.203126 85.332032 85.332032zm106.667968-224c5.890625 0 10.667969 4.777344 10.667969 10.667968 0 5.890626-4.777344 10.667969-10.667969 10.667969s-10.667968-4.777343-10.667968-10.667969c0-5.890624 4.777343-10.667968 10.667968-10.667968zm-384 0c5.890625 0 10.667969 4.777344 10.667969 10.667968 0 5.890626-4.777344 10.667969-10.667969 10.667969s-10.667968-4.777343-10.667968-10.667969c0-5.890624 4.777343-10.667968 10.667968-10.667968zm0 0" fill="#474c54"/>
  <path d="m74.734375 352.132812v-21.332031h-21.335937c-5.890626 0-10.664063-4.777343-10.664063-10.667969v-33.964843c14.691406-5.191407 23.507813-20.21875 20.871094-35.578125-2.636719-15.363282-15.953125-26.589844-31.539063-26.589844-15.585937 0-28.902344 11.226562-31.539062 26.589844-2.636719 15.359375 6.179687 30.386718 20.871094 35.578125v33.964843c0 17.671876 14.328124 32 32 32zm-42.667969-106.667968c5.890625 0 10.667969 4.777344 10.667969 10.667968 0 5.890626-4.777344 10.667969-10.667969 10.667969s-10.667968-4.777343-10.667968-10.667969c0-5.890624 4.777343-10.667968 10.667968-10.667968zm0 0" fill="#474c54"/>
  <path d="m213.398438 458.800781c0 5.890625-4.773438 10.664063-10.664063 10.664063h-108.628906c-5.195313-14.691406-20.222657-23.507813-35.582031-20.871094-15.363282 2.636719-26.589844 15.953125-26.589844 31.539062 0 15.585938 11.226562 28.902344 26.589844 31.539063 15.359374 2.636719 30.386718-6.179687 35.582031-20.871094h108.628906c17.671875 0 32-14.328125 32-32v-160h-21.335937zm-149.332032 32c-5.890625 0-10.667968-4.777343-10.667968-10.667969 0-5.890624 4.777343-10.667968 10.667968-10.667968s10.667969 4.777344 10.667969 10.667968c0 5.890626-4.777344 10.667969-10.667969 10.667969zm0 0" fill="#474c54"/>
  <path d="m512.066406 256.132812c.066406-16.289062-12.113281-30.03125-28.292968-31.917968-16.183594-1.886719-31.199219 8.683594-34.878907 24.554687-3.679687 15.867188 5.144531 31.96875 20.503907 37.398438v33.964843c0 5.890626-4.773438 10.667969-10.664063 10.667969h-21.335937v21.332031h21.335937c17.671875 0 32-14.328124 32-32v-33.964843c12.738281-4.503907 21.277344-16.523438 21.332031-30.035157zm-32 10.667969c-5.890625 0-10.667968-4.777343-10.667968-10.667969 0-5.890624 4.777343-10.667968 10.667968-10.667968s10.667969 4.777344 10.667969 10.667968c0 5.890626-4.777344 10.667969-10.667969 10.667969zm0 0" fill="#474c54"/>
  <path d="m448.066406 448.132812c-13.511718.054688-25.535156 8.59375-30.039062 21.332032h-108.628906c-5.890626 0-10.664063-4.773438-10.664063-10.664063v-160h-21.335937v160c0 17.671875 14.328124 32 32 32h108.628906c5.453125 15.300781 21.519531 24.078125 37.339844 20.394531 15.820312-3.683593 26.359374-18.652343 24.492187-34.789062-1.871094-16.136719-15.550781-28.300781-31.792969-28.273438zm0 42.667969c-5.890625 0-10.667968-4.777343-10.667968-10.667969 0-5.890624 4.777343-10.667968 10.667968-10.667968s10.667969 4.777344 10.667969 10.667968c0 5.890626-4.777344 10.667969-10.667969 10.667969zm0 0" fill="#474c54"/>
</svg>
