<?xml version="1.0" encoding="UTF-8"?>
<!-- Generator: Adobe Illustrator 19.0.0, SVG Export Plug-In . SVG Version: 6.00 Build 0)  -->
<svg xmlns="http://www.w3.org/2000/svg" xmlns:xlink="http://www.w3.org/1999/xlink" version="1.1" id="Capa_1" x="0px" y="0px" viewBox="0 0 512.002 512.002" style="enable-background:new 0 0 512.002 512.002;" xml:space="preserve" width="512" height="512">
<path style="fill:#FFC66C;" d="M343.905,290.599l147.056,147.056c14.719,14.719,14.719,38.583,0,53.303l0,0  c-14.719,14.719-38.583,14.719-53.303,0L290.602,343.902L343.905,290.599z"/>
<rect x="300.568" y="308.546" transform="matrix(0.7071 -0.7071 0.7071 0.7071 -140.1022 338.2533)" style="fill:#FFFFFF;" width="75.378" height="59.398"/>
<path style="fill:#4DBAF6;" d="M369.995,189.999c0-99.412-80.585-179.997-179.997-179.997S10.001,90.586,10.001,189.999  s80.585,179.997,179.997,179.997S369.995,289.411,369.995,189.999z"/>
<circle style="fill:#C9F3FF;" cx="189.997" cy="189.998" r="136.008"/>
<path d="M120.773,318.581c21.208,11.428,45.297,17.394,69.456,17.394c6.679,0,13.364-0.456,19.993-1.379  c31.651-4.404,60.357-18.707,83.013-41.361c56.924-56.925,56.924-149.547,0-206.472c-27.575-27.576-64.238-42.761-103.235-42.761  c-38.995,0-75.663,15.188-103.236,42.761c-22.655,22.655-36.957,51.36-41.361,83.012c-4.26,30.61,1.428,62.377,16.014,89.447  c2.621,4.862,8.688,6.679,13.547,4.061c4.862-2.62,6.68-8.685,4.061-13.547c-26.173-48.573-17.174-109.774,21.884-148.83  c23.798-23.799,55.438-36.904,89.094-36.904c33.654,0,65.296,13.106,89.093,36.903c49.126,49.126,49.126,129.061,0,178.188  c-39.057,39.059-100.261,48.055-148.832,21.883c-4.861-2.618-10.926-0.802-13.547,4.061  C114.094,309.896,115.911,315.961,120.773,318.581z"/>
<path d="M86.768,279.08l-0.088,0.088c-3.905,3.905-3.905,10.237,0,14.143c1.953,1.952,4.512,2.929,7.071,2.929  s5.118-0.977,7.071-2.929l0.088-0.088c3.905-3.905,3.905-10.237,0-14.143C97.004,275.176,90.674,275.176,86.768,279.08z"/>
<path d="M310.808,70.4c1.956,1.983,4.536,2.977,7.118,2.977c2.537,0,5.075-0.959,7.023-2.881c3.932-3.879,3.974-10.21,0.095-14.142  l-0.698-0.703c-3.906-3.905-10.236-3.905-14.143,0c-3.905,3.905-3.905,10.237,0,14.143L310.808,70.4z"/>
<path d="M390.006,322.557c3.185-6.862,10.028-11.267,17.636-11.267c10.723,0,19.445,8.723,19.445,19.445V340c0,5.522,4.478,10,10,10  s10-4.478,10-10v-9.265c0-21.75-17.695-39.444-39.444-39.444c-13.013,0-24.929,6.349-32.218,16.684l-21.673-21.673  c12.682-21.573,21.072-45.559,24.489-70.522c6.128,3.923,13.4,6.208,21.201,6.208c21.75,0,39.444-17.695,39.444-39.444v-19.459  c0-21.75-17.695-39.445-39.444-39.445c-10.74,0-20.487,4.32-27.607,11.307c-5.253-17.414-12.984-34.076-23.062-49.366  c-3.039-4.612-9.244-5.887-13.853-2.847c-4.611,3.039-5.886,9.241-2.847,13.853c44.138,66.969,34.94,156.808-21.87,213.618  c-32.108,32.109-74.799,49.793-120.205,49.793c-45.407,0-88.097-17.684-120.206-49.793S20,235.405,20,189.999  s17.684-88.097,49.793-120.206C126.399,13.183,216.03,3.851,282.92,47.6c4.622,3.023,10.82,1.727,13.843-2.895  c3.022-4.622,1.727-10.82-2.896-13.843C257.903,7.34,214.411-3.301,171.401,0.907c-38.038,3.72-74.173,18.992-103.381,43.43V34.005  c0-18.748-15.252-33.999-33.999-33.999S0.021,15.258,0.021,34.005v35.999c0,14.397,8.999,26.724,21.665,31.673  C7.519,128.594,0,158.716,0,189.999c0,50.749,19.765,98.461,55.65,134.348c1.715,1.715,3.465,3.381,5.232,5.021v22.362  c0,10.723-8.723,19.445-19.445,19.445s-19.445-8.723-19.445-19.445V332.27c0-5.522-4.478-10-10-10s-10,4.478-10,10v19.459  c0,21.75,17.695,39.444,39.444,39.444s39.444-17.695,39.444-39.444v-6.133c31.734,22.356,69.5,34.4,109.116,34.4  c34.44,0,67.478-9.113,96.375-26.181l144.212,144.212c9.008,9.008,20.984,13.969,33.723,13.969c12.74,0,24.716-4.961,33.723-13.969  c18.594-18.595,18.594-48.85,0-67.445L390.006,322.557z M379.994,163.085c0-10.723,8.724-19.446,19.446-19.446  c10.722,0,19.445,8.723,19.445,19.446v19.459c0,10.722-8.724,19.445-19.445,19.445c-10.723,0-19.446-8.723-19.446-19.445  L379.994,163.085L379.994,163.085z M20.021,70.005V34.005c0-7.72,6.28-14,14-14s14,6.28,14,14v26.75c0,0.9,0.13,1.767,0.353,2.596  c-5.849,6.524-11.202,13.386-16.04,20.542C25.408,83.054,20.021,77.152,20.021,70.005z M324.346,324.346  c6.581-6.58,12.633-13.617,18.136-21.029l29.281,29.28l-39.161,39.16l-29.244-29.244  C310.717,337.019,317.733,330.958,324.346,324.346z M483.89,483.886c-10.797,10.797-28.365,10.797-39.161,0l-97.985-97.985  l39.161-39.16l97.985,97.985C494.686,455.522,494.686,473.091,483.89,483.886z"/>
<path d="M46.781,491.997h-7.944v-68.35c0-4.045-2.437-7.691-6.173-9.239c-3.737-1.546-8.039-0.692-10.898,2.168L2.94,435.402  c-3.905,3.905-3.905,10.237,0,14.143c3.906,3.904,10.236,3.904,14.143,0l1.755-1.755v44.207h-7.944c-5.522,0-10,4.478-10,10  c0,5.522,4.478,10,10,10h35.888c5.522,0,10-4.478,10-10C56.782,496.475,52.304,491.997,46.781,491.997z"/>
<path d="M135.613,491.997h-7.944v-68.35c0-4.045-2.437-7.691-6.173-9.239c-3.736-1.546-8.038-0.692-10.898,2.168l-18.826,18.826  c-3.905,3.905-3.905,10.237,0,14.143c3.906,3.904,10.236,3.904,14.143,0l1.755-1.755v44.207h-7.944c-5.522,0-10,4.478-10,10  c0,5.522,4.478,10,10,10h35.888c5.522,0,10-4.478,10-10C145.614,496.475,141.136,491.997,135.613,491.997z"/>
<path d="M313.277,491.997h-7.944v-68.35c0-4.045-2.437-7.691-6.173-9.239c-3.737-1.546-8.038-0.692-10.898,2.168l-18.826,18.826  c-3.905,3.905-3.905,10.237,0,14.143c3.906,3.904,10.236,3.904,14.143,0l1.755-1.755v44.207h-7.944c-5.522,0-10,4.478-10,10  c0,5.522,4.478,10,10,10h35.888c5.522,0,10-4.478,10-10C323.278,496.475,318.799,491.997,313.277,491.997z"/>
<path d="M206.059,413.648c-21.75,0-39.444,17.695-39.444,39.444v19.46c0,21.75,17.695,39.444,39.444,39.444  s39.444-17.695,39.444-39.444v-19.459C245.505,431.343,227.809,413.648,206.059,413.648z M225.505,472.553  c0,10.723-8.723,19.445-19.445,19.445c-10.722,0-19.445-8.723-19.445-19.445v-19.46c0-10.723,8.723-19.445,19.445-19.445  c10.722,0,19.445,8.723,19.445,19.445V472.553z"/>
<path d="M502,371.174h-7.944v-68.349c0-4.045-2.437-7.691-6.173-9.239c-3.737-1.545-8.038-0.692-10.898,2.168L458.16,314.58  c-3.905,3.905-3.905,10.237,0,14.143c3.906,3.904,10.236,3.904,14.143,0l1.755-1.755v44.206h-7.944c-5.522,0-10,4.478-10,10  s4.478,10,10,10h35.888c5.522,0,10-4.478,10-10S507.522,371.174,502,371.174z"/>
<path d="M372.409,35.902l1.755-1.755v44.207h-7.944c-5.522,0-10,4.477-10,10c0,5.523,4.478,10,10,10h35.888c5.522,0,10-4.477,10-10  c0-5.523-4.478-10-10-10h-7.944V10.006c0-4.044-2.437-7.691-6.173-9.239c-3.738-1.549-8.039-0.691-10.898,2.167l-18.826,18.826  c-3.905,3.905-3.905,10.237,0,14.143C362.174,39.807,368.504,39.807,372.409,35.902z"/>
<path d="M472.555,0.006c-21.75,0-39.444,17.695-39.444,39.445V58.91c0,21.75,17.695,39.444,39.444,39.444  c21.75,0,39.444-17.695,39.444-39.444V39.45C512,17.701,494.304,0.006,472.555,0.006z M492,58.91  c0,10.722-8.723,19.445-19.445,19.445c-10.722,0-19.445-8.723-19.445-19.445V39.45c0-10.723,8.723-19.446,19.445-19.446  c10.722,0,19.445,8.723,19.445,19.446V58.91z"/>
<path d="M502,201.988h-7.944v-68.35c0-4.044-2.437-7.691-6.173-9.239c-3.737-1.548-8.038-0.692-10.898,2.167l-18.826,18.826  c-3.905,3.905-3.905,10.237,0,14.143c3.906,3.905,10.236,3.905,14.143,0l1.755-1.755v44.207h-7.944c-5.522,0-10,4.477-10,10  c0,5.523,4.478,10,10,10h35.888c5.522,0,10-4.477,10-10C512.002,206.464,507.522,201.988,502,201.988z"/>
<path d="M254.285,133.754c-3.737-1.548-8.039-0.691-10.898,2.168l-22.589,22.59c-3.905,3.905-3.905,10.237,0,14.142  c3.906,3.905,10.236,3.905,14.143,0l5.518-5.518v59.87h-11.531c-5.522,0-10,4.477-10,10c0,5.523,4.478,10,10,10h43.062  c5.522,0,10-4.477,10-10c0-5.523-4.478-10-10-10h-11.532v-84.013C260.457,138.947,258.02,135.301,254.285,133.754z"/>
<path d="M143.338,247.004c24.996,0,45.331-20.336,45.331-45.331v-23.35c0-24.996-20.336-45.331-45.331-45.331  s-45.331,20.336-45.331,45.331v23.35C98.007,226.669,118.343,247.004,143.338,247.004z M118.007,178.324  c0-13.968,11.364-25.332,25.332-25.332s25.332,11.364,25.332,25.332v23.35c0,13.968-11.364,25.332-25.332,25.332  s-25.332-11.364-25.332-25.332V178.324z"/>
<g>
</g>
<g>
</g>
<g>
</g>
<g>
</g>
<g>
</g>
<g>
</g>
<g>
</g>
<g>
</g>
<g>
</g>
<g>
</g>
<g>
</g>
<g>
</g>
<g>
</g>
<g>
</g>
<g>
</g>
</svg>
