<?xml version="1.0" encoding="UTF-8"?>
<svg xmlns="http://www.w3.org/2000/svg" height="512" viewBox="0 0 512 512" width="512">
  <path d="m277.128906 117.332031c29.453125 0 53.332032 23.878907 53.332032 53.335938 0 29.453125-23.878907 53.332031-53.332032 53.332031h-213.332031c-29.457031 0-53.335937-23.878906-53.335937-53.332031 0-29.457031 23.878906-53.335938 53.335937-53.335938h11.304687c-.429687-3.539062-.640624-7.101562-.640624-10.664062 0-53.019531 42.980468-96 96-96 53.019531 0 96 42.980469 96 96 .003906 3.5625-.210938 7.125-.640626 10.664062zm0 0" fill="#49aaee"/>
  <g fill="#d0d7df">
    <path d="m458.460938 192c0 11.78125-9.550782 21.332031-21.332032 21.332031s-21.332031-9.550781-21.332031-21.332031 9.550781-21.332031 21.332031-21.332031 21.332032 9.550781 21.332032 21.332031zm0 0"/>
    <path d="m149.128906 480c0 11.78125-9.550781 21.332031-21.332031 21.332031-11.785156 0-21.335937-9.550781-21.335937-21.332031s9.550781-21.332031 21.335937-21.332031c11.78125 0 21.332031 9.550781 21.332031 21.332031zm0 0"/>
    <path d="m202.460938 362.667969c0 11.78125-9.550782 21.332031-21.332032 21.332031s-21.332031-9.550781-21.332031-21.332031c0-11.785157 9.550781-21.335938 21.332031-21.335938s21.332032 9.550781 21.332032 21.335938zm0 0"/>
  </g>
  <path d="m501.128906 373.332031c0 70.695313-57.308594 128-128 128s-128-57.304687-128-128c0-70.691406 57.308594-128 128-128s128 57.308594 128 128zm0 0" fill="#fed049"/>
  <path d="m181.128906 330.667969c-13.511718.054687-25.535156 8.59375-30.039062 21.332031h-12.628906c-5.890626 0-10.664063-4.777344-10.664063-10.667969v-106.664062h149.332031c20.792969.054687 40.308594-10.023438 52.304688-27.007813s14.96875-38.75 7.960937-58.328125h78.402344c5.890625 0 10.664063 4.777344 10.664063 10.667969v1.960938c-14.691407 5.195312-23.507813 20.222656-20.871094 35.582031 2.636718 15.363281 15.953125 26.589843 31.539062 26.589843 15.585938 0 28.902344-11.226562 31.539063-26.589843 2.636719-15.359375-6.179688-30.386719-20.871094-35.582031v-1.960938c0-17.671875-14.328125-32-32-32h-91.09375c-12.097656-13.558594-29.402344-21.320312-47.574219-21.332031 0-58.910157-47.757812-106.667969-106.667968-106.667969-58.910157 0-106.664063 47.757812-106.664063 106.667969-31.09375.097656-57.613281 22.527343-62.875 53.167969-5.257813 30.644531 12.261719 60.632812 41.539063 71.097656v227.734375c0 17.671875 14.328124 32 32 32h23.296874c5.195313 14.691406 20.21875 23.507812 35.582032 20.871093 15.359375-2.636718 26.589844-15.953124 26.589844-31.539062s-11.230469-28.902344-26.589844-31.539062c-15.363282-2.636719-30.386719 6.179687-35.582032 20.871093h-23.296874c-5.890626 0-10.664063-4.773437-10.664063-10.664062v-224h42.664063v106.664062c0 17.675781 14.328124 32 32 32h12.628906c5.453125 15.304688 21.519531 24.078125 37.339844 20.394531 15.820312-3.683593 26.359374-18.652343 24.492187-34.789062-1.871094-16.132812-15.550781-28.300781-31.792969-28.269531zm256-128c-5.890625 0-10.667968-4.777344-10.667968-10.667969s4.777343-10.667969 10.667968-10.667969 10.667969 4.777344 10.667969 10.667969-4.777344 10.667969-10.667969 10.667969zm-309.332031 266.664062c5.890625 0 10.664063 4.777344 10.664063 10.667969s-4.773438 10.667969-10.664063 10.667969c-5.894531 0-10.667969-4.777344-10.667969-10.667969s4.773438-10.667969 10.667969-10.667969zm-106.667969-298.664062c0-23.566407 19.101563-42.667969 42.667969-42.667969h11.292969c3.03125 0 5.921875-1.289062 7.945312-3.546875 2.023438-2.257813 2.988282-5.269531 2.660156-8.28125-.363281-3.15625-.550781-6.328125-.566406-9.503906 0-47.128907 38.203125-85.335938 85.332032-85.335938 47.128906 0 85.335937 38.207031 85.335937 85.335938h-85.335937v21.332031h106.667968c23.5625 0 42.667969 19.101562 42.667969 42.667969 0 23.5625-19.105469 42.664062-42.667969 42.664062h-213.332031c-23.566406 0-42.667969-19.101562-42.667969-42.664062zm160 202.664062c-5.890625 0-10.667968-4.773437-10.667968-10.664062s4.777343-10.667969 10.667968-10.667969 10.667969 4.777344 10.667969 10.667969-4.777344 10.664062-10.667969 10.664062zm0 0" fill="#474c54"/>
  <path d="m373.128906 234.667969c-76.582031 0-138.667968 62.082031-138.667968 138.664062 0 76.585938 62.085937 138.667969 138.667968 138.667969 76.582032 0 138.667969-62.082031 138.667969-138.667969-.089844-76.546875-62.121094-138.578125-138.667969-138.664062zm0 256c-11.46875 0-23.679687-16.289063-32.097656-42.667969h64.191406c-8.414062 26.378906-20.628906 42.667969-32.09375 42.667969zm-37.535156-64c-2.789062-14.066407-4.429688-28.335938-4.90625-42.667969h84.882812c-.476562 14.332031-2.117187 28.601562-4.90625 42.667969zm-79.253906-42.667969h53.023437c.402344 14.308594 1.859375 28.570312 4.363281 42.667969h-44.980468c-6.839844-13.292969-11.054688-27.78125-12.40625-42.667969zm116.789062-128c11.464844 0 23.679688 16.289062 32.09375 42.667969h-64.191406c8.417969-26.378907 20.628906-42.667969 32.097656-42.667969zm37.535156 64c2.789063 14.066406 4.429688 28.335938 4.90625 42.667969h-84.882812c.476562-14.332031 2.117188-28.601563 4.90625-42.667969zm-101.332031 42.667969h-52.992187c1.351562-14.890625 5.566406-29.375 12.40625-42.667969h44.980468c-2.503906 14.09375-3.960937 28.355469-4.363281 42.667969zm127.53125 21.332031h53.023438c-1.355469 14.886719-5.566407 29.375-12.40625 42.667969h-44.949219c2.5-14.097657 3.960938-28.359375 4.363281-42.667969zm0-21.332031c-.40625-14.3125-1.863281-28.574219-4.363281-42.667969h44.980469c6.839843 13.292969 11.050781 27.777344 12.40625 42.667969zm26.664063-64h-36c-3.359375-12.480469-8.347656-24.460938-14.835938-35.636719 19.84375 7.113281 37.414063 19.417969 50.878906 35.636719zm-130.015625-35.636719c-6.46875 11.179688-11.4375 23.160156-14.78125 35.636719h-36.042969c13.449219-16.210938 31-28.515625 50.824219-35.636719zm-50.824219 184.96875h36.042969c3.359375 12.476562 8.347656 24.460938 14.835937 35.636719-19.84375-7.113281-37.414062-19.421875-50.878906-35.636719zm130.058594 35.636719c6.464844-11.179688 11.4375-23.160157 14.78125-35.636719h35.992187c-13.4375 16.199219-30.972656 28.507812-50.773437 35.636719zm0 0" fill="#474c54"/>
</svg>
